M48
;DRILL file {KiCad 4.0.1-stable} date 2016/09/09 19:26:25
;FORMAT={3:3/ absolute / metric / suppress trailing zeros}
FMAT,2
METRIC,LZ
T1C0.300
T2C0.400
T3C0.600
T4C0.700
T5C0.800
T6C0.813
T7C1.016
%
G90
G05
M71
T1
X112928Y-090805
X113843Y-092659
X114122Y-088976
X115214Y-084176
X115367Y-091135
X116205Y-081407
X116967Y-085725
X117399Y-08349
X117729Y-078994
X118618Y-081026
X119812Y-122784
X121006Y-121564
X121209Y-123165
X122174Y-129946
X122276Y-085954
X122453Y-121717
X122885Y-073152
X12319Y-083718
X123241Y-075565
X1238Y-130632
X123901Y-119888
X124511Y-121488
X124663Y-085242
X124739Y-092812
X125019Y-070942
X125044Y-081839
X125247Y-119659
X125324Y-12921
X125527Y-073177
X126086Y-10254
X126252Y-077286
X126543Y-09083
X126644Y-087376
X126644Y-116307
X126695Y-089078
X126721Y-1175
X127305Y-071272
X127446Y-082846
X127559Y-100508
X12766Y-115418
X12794Y-116611
X128219Y-123876
X128626Y-10287
X129333Y-096778
X129362Y-074651
X129424Y-10587
X12954Y-108585
X129667Y-094082
X130353Y-11491
X1304Y-082846
X130632Y-073203
X130695Y-10668
X130734Y-121006
X130734Y-132334
X13081Y-109855
X130835Y-112065
X131343Y-076657
X131445Y-10668
X132105Y-09398
X132105Y-095733
X132195Y-10668
X132486Y-113386
X132512Y-11938
X1326Y-126603
X132639Y-130962
X133102Y-087123
X13335Y-076708
X133469Y-098639
X133528Y-074651
X133739Y-115699
X133753Y-110012
X133854Y-097374
X134163Y-132461
X134413Y-0799
X135178Y-078659
X13573Y-106249
X135992Y-13081
X137236Y-108433
X137312Y-062687
X137541Y-111303
X137719Y-132512
X138455Y-072314
X138532Y-068326
X138575Y-105272
X138684Y-11496
X138963Y-109118
X139141Y-117577
X139217Y-070307
X139322Y-095754
X139446Y-101727
X139548Y-130912
X139715Y-103218
X140183Y-062916
X140233Y-06891
X14031Y-092024
X140485Y-097751
X140513Y-093472
X140691Y-08763
X140716Y-112852
X140894Y-076479
X141021Y-115951
X141045Y-096954
X141046Y-09017
X141146Y-12521
X141199Y-072517
X141478Y-086208
X141605Y-06157
X141732Y-075209
X141779Y-096822
X141998Y-107633
X142189Y-120396
X142283Y-124073
X142327Y-081809
X142341Y-106371
X142392Y-092075
X142494Y-086868
X14253Y-078258
X143123Y-112292
X143151Y-078533
X143281Y-088341
X143281Y-090246
X143307Y-062611
X143307Y-076784
X143383Y-072365
X143408Y-122301
X143713Y-098639
X143856Y-097895
X143891Y-113919
X144145Y-079756
X144399Y-075717
X144399Y-110744
X144716Y-091976
X145085Y-079273
X14511Y-11651
X145161Y-118567
X145288Y-10414
X145418Y-0824
X145495Y-086893
X145653Y-084539
X145745Y-131826
X145883Y-079859
X146104Y-097375
X146217Y-091015
X14671Y-07935
X146812Y-101981
X146934Y-086242
X147072Y-090394
X147091Y-117602
X147429Y-088426
X147447Y-061011
X147537Y-107227
X147549Y-119939
X14765Y-132994
X147833Y-097672
X147879Y-131013
X147955Y-079375
X14809Y-104354
X148194Y-084245
X148222Y-085372
X14825Y-087146
X148361Y-069215
X148384Y-097358
X148387Y-066497
X148463Y-138227
X148539Y-136347
X14859Y-114808
X148837Y-089746
X148844Y-062332
X149105Y-098076
X1492Y-067945
X149323Y-100781
X149347Y-101828
X149347Y-102613
X149352Y-120447
X149398Y-085361
X149398Y-090307
X149685Y-0722
X149793Y-075916
X149832Y-073641
X149936Y-131851
X150068Y-090953
X150299Y-115943
X150444Y-060808
X150582Y-096592
X150632Y-084146
X150978Y-072314
X15104Y-10539
X151183Y-096733
X151765Y-10287
X151892Y-104648
X152057Y-079228
X152375Y-062179
X1524Y-1127
X152502Y-073
X152603Y-067894
X152612Y-099078
X152654Y-070079
X153042Y-131916
X153229Y-078388
X153293Y-098587
X153302Y-118156
X153314Y-11049
X153416Y-068605
X15354Y-084424
X153811Y-131939
X153835Y-078947
X153975Y-07493
X154065Y-118923
X154153Y-113462
X154584Y-073533
X155121Y-099433
X155306Y-122957
X155346Y-132867
X155381Y-105981
X155423Y-074803
X155702Y-110795
X155792Y-099422
X15625Y-097845
X156274Y-119136
X15682Y-113741
X15687Y-072365
X156997Y-076075
X156997Y-080624
X157243Y-107844
X157328Y-096215
X157505Y-090729
X157582Y-122453
X157607Y-116129
X157963Y-132893
X157988Y-079248
X157988Y-08255
X159004Y-08128
X159004Y-094691
X159263Y-105949
X159791Y-103302
X16002Y-085471
X16002Y-108585
X160122Y-089891
X160547Y-071366
X160833Y-100178
X160894Y-132966
X16096Y-119228
X161011Y-097815
X161036Y-06924
X161175Y-10668
X161182Y-074647
X161195Y-072014
X16129Y-109855
X161493Y-116764
X161595Y-086081
X161925Y-10668
X162308Y-084304
X162611Y-067335
X162675Y-10668
X162687Y-098501
X162814Y-095783
X163038Y-110831
X163144Y-086106
X163322Y-069444
X163524Y-131592
X163601Y-116891
X163678Y-122885
X163805Y-108991
X163992Y-082605
X164059Y-078816
X164135Y-107442
X164211Y-119609
X164262Y-075692
X164286Y-109583
X164592Y-096647
X164641Y-083285
X164948Y-071095
X165227Y-094615
X165735Y-068402
X165862Y-112522
X165964Y-103403
X165964Y-135255
X166065Y-133096
X166218Y-075692
X166675Y-119863
X1667Y-122301
X167386Y-10066
X167792Y-069469
X167869Y-136652
X16797Y-134391
X168021Y-075717
X168021Y-102692
X168123Y-120345
X168808Y-108966
X169037Y-11557
X16924Y-106655
X169348Y-13189
X169697Y-073431
X169799Y-084328
X170002Y-111963
X170637Y-133179
X171196Y-110439
X171348Y-080188
X17145Y-0889
X171526Y-07493
X171704Y-090805
X171729Y-082677
X17178Y-119939
X172339Y-086741
X173126Y-071552
X173228Y-123646
X17338Y-076657
X173939Y-082093
X174142Y-073939
X174625Y-084861
X178867Y-127914
X179197Y-12573
X179756Y-085115
X180416Y-127
X180518Y-087452
X181432Y-082296
X181737Y-08448
T2
X132415Y-081643
X133494Y-07158
X136967Y-081643
X139239Y-080774
X144375Y-066504
X145573Y-063124
X146779Y-074475
X14815Y-074994
X149783Y-074514
T3
X13081Y-102235
X132715Y-103505
X134218Y-10918
X137033Y-104394
X142326Y-127762
X146726Y-127762
X16129Y-102235
X163195Y-103505
X16667Y-084078
X174596Y-092463
T4
X13589Y-136398
X13789Y-136398
X142276Y-126062
X142276Y-129462
X143002Y-136398
X143376Y-126062
X143376Y-127762
X143376Y-129462
X145002Y-136398
X145676Y-126062
X145676Y-129462
X146776Y-126062
X146776Y-129462
T5
X12036Y-08923
X12059Y-09125
X122886Y-088964
X123116Y-090984
X136906Y-075946
X138176Y-073746
X138684Y-076962
X139954Y-074762
X144526Y-126062
X144526Y-127762
X144526Y-129462
X15711Y-07443
X15838Y-07663
X15889Y-07343
X16016Y-07563
X17385Y-09091
X17407Y-08896
X176376Y-091176
X176596Y-089226
T6
X124038Y-133096
X126238Y-134366
X128438Y-135636
T7
X12954Y-0889
X12954Y-09144
X13208Y-0889
X13208Y-09144
X13462Y-0889
X13462Y-09144
X16256Y-0889
X16256Y-09144
X1651Y-0889
X1651Y-09144
X16764Y-0889
X16764Y-09144
T0
M30
