G04 #@! TF.FileFunction,Legend,Bot*
%FSLAX46Y46*%
G04 Gerber Fmt 4.6, Leading zero omitted, Abs format (unit mm)*
G04 Created by KiCad (PCBNEW 4.0.1-stable) date 2016/09/09 19:26:17*
%MOMM*%
G01*
G04 APERTURE LIST*
%ADD10C,0.100000*%
%ADD11C,1.800000*%
%ADD12R,2.127200X2.127200*%
%ADD13O,2.127200X2.127200*%
%ADD14C,1.797000*%
%ADD15C,1.000000*%
%ADD16R,1.600000X2.100000*%
%ADD17O,1.600000X2.100000*%
%ADD18R,1.200000X1.500000*%
%ADD19R,1.100000X1.500000*%
%ADD20R,1.100000X1.400000*%
%ADD21R,1.000000X1.500000*%
G04 APERTURE END LIST*
D10*
%LPC*%
G36*
X172860855Y-91710994D02*
X173049006Y-89920855D01*
X174839145Y-90109006D01*
X174650994Y-91899145D01*
X172860855Y-91710994D01*
X172860855Y-91710994D01*
G37*
D11*
X176376086Y-91175502D03*
D10*
G36*
X139013423Y-78191423D02*
X137454577Y-77291423D01*
X138354577Y-75732577D01*
X139913423Y-76632577D01*
X139013423Y-78191423D01*
X139013423Y-78191423D01*
G37*
D11*
X139954000Y-74762295D03*
D10*
G36*
X119789006Y-92239145D02*
X119600855Y-90449006D01*
X121390994Y-90260855D01*
X121579145Y-92050994D01*
X119789006Y-92239145D01*
X119789006Y-92239145D01*
G37*
D11*
X123116086Y-90984498D03*
D10*
G36*
X155880577Y-74100577D02*
X157439423Y-73200577D01*
X158339423Y-74759423D01*
X156780577Y-75659423D01*
X155880577Y-74100577D01*
X155880577Y-74100577D01*
G37*
D11*
X158380000Y-76629705D03*
D10*
G36*
X137235423Y-77175423D02*
X135676577Y-76275423D01*
X136576577Y-74716577D01*
X138135423Y-75616577D01*
X137235423Y-77175423D01*
X137235423Y-77175423D01*
G37*
D11*
X138176000Y-73746295D03*
D10*
G36*
X119559006Y-90219145D02*
X119370855Y-88429006D01*
X121160994Y-88240855D01*
X121349145Y-90030994D01*
X119559006Y-90219145D01*
X119559006Y-90219145D01*
G37*
D11*
X122886086Y-88964498D03*
D10*
G36*
X173080855Y-89760994D02*
X173269006Y-87970855D01*
X175059145Y-88159006D01*
X174870994Y-89949145D01*
X173080855Y-89760994D01*
X173080855Y-89760994D01*
G37*
D11*
X176596086Y-89225502D03*
D10*
G36*
X157660577Y-73100577D02*
X159219423Y-72200577D01*
X160119423Y-73759423D01*
X158560577Y-74659423D01*
X157660577Y-73100577D01*
X157660577Y-73100577D01*
G37*
D11*
X160160000Y-75629705D03*
D12*
X134620000Y-88900000D03*
D13*
X134620000Y-91440000D03*
X132080000Y-88900000D03*
X132080000Y-91440000D03*
X129540000Y-88900000D03*
X129540000Y-91440000D03*
D12*
X167640000Y-88900000D03*
D13*
X167640000Y-91440000D03*
X165100000Y-88900000D03*
X165100000Y-91440000D03*
X162560000Y-88900000D03*
X162560000Y-91440000D03*
D10*
G36*
X122810921Y-133424874D02*
X123709421Y-131868626D01*
X125265669Y-132767126D01*
X124367169Y-134323374D01*
X122810921Y-133424874D01*
X122810921Y-133424874D01*
G37*
D14*
X126238000Y-134366000D03*
X128437705Y-135636000D03*
D15*
X131445000Y-106680000D03*
X132195000Y-106680000D03*
X130695000Y-106680000D03*
X161925000Y-106680000D03*
X162675000Y-106680000D03*
X161175000Y-106680000D03*
D16*
X135890000Y-136398000D03*
D17*
X137890000Y-136398000D03*
D16*
X143002000Y-136398000D03*
D17*
X145002000Y-136398000D03*
D18*
X144526000Y-127762000D03*
D19*
X146776000Y-129462000D03*
D20*
X145676000Y-129462000D03*
D18*
X144526000Y-129462000D03*
D20*
X143376000Y-129462000D03*
D19*
X142276000Y-129462000D03*
D21*
X142326000Y-127762000D03*
D19*
X142276000Y-126062000D03*
D20*
X143376000Y-126062000D03*
D18*
X144526000Y-126062000D03*
D20*
X145676000Y-126062000D03*
D19*
X146776000Y-126062000D03*
D21*
X146726000Y-127762000D03*
D19*
X143376000Y-127762000D03*
M02*
